<?xml version="1.0" encoding="UTF-8" standalone="no"?>
<svg
   width="1024px"
   height="1024px"
   viewBox="0 0 1024 1024"
   class="icon"
   version="1.1"
   id="svg4"
   sodipodi:docname="reboot.svg"
   inkscape:version="1.1.1 (3bf5ae0d25, 2021-09-20)"
   xmlns:inkscape="http://www.inkscape.org/namespaces/inkscape"
   xmlns:sodipodi="http://sodipodi.sourceforge.net/DTD/sodipodi-0.dtd"
   xmlns="http://www.w3.org/2000/svg"
   xmlns:svg="http://www.w3.org/2000/svg">
  <defs
     id="defs8" />
  <sodipodi:namedview
     id="namedview6"
     pagecolor="#ffffff"
     bordercolor="#666666"
     borderopacity="1.0"
     inkscape:pageshadow="2"
     inkscape:pageopacity="0.0"
     inkscape:pagecheckerboard="0"
     showgrid="false"
     inkscape:zoom="0.8125"
     inkscape:cx="512"
     inkscape:cy="512.61538"
     inkscape:window-width="1920"
     inkscape:window-height="1017"
     inkscape:window-x="1912"
     inkscape:window-y="-8"
     inkscape:window-maximized="1"
     inkscape:current-layer="svg4" />
  <path
     d="M168 504.2c1-43.7 10-86.1 26.9-126 17.3-41 42.1-77.7 73.7-109.4S337 212.3 378 195c42.4-17.9 87.4-27 133.9-27s91.5 9.1 133.8 27A341.5 341.5 0 0 1 755 268.8c9.9 9.9 19.2 20.4 27.8 31.4l-60.2 47a8 8 0 0 0 3 14.1l175.7 43c5 1.2 9.9-2.6 9.9-7.7l.8-180.9c0-6.7-7.7-10.5-12.9-6.3l-56.4 44.1C765.8 155.1 646.2 92 511.8 92 282.7 92 96.3 275.6 92 503.8a8 8 0 0 0 8 8.2h60c4.4 0 7.9-3.5 8-7.8zm756 7.8h-60c-4.4 0-7.9 3.5-8 7.8-1 43.7-10 86.1-26.9 126-17.3 41-42.1 77.8-73.7 109.4A342.45 342.45 0 0 1 512.1 856a342.24 342.24 0 0 1-243.2-100.8c-9.9-9.9-19.2-20.4-27.8-31.4l60.2-47a8 8 0 0 0-3-14.1l-175.7-43c-5-1.2-9.9 2.6-9.9 7.7l-.7 181c0 6.7 7.7 10.5 12.9 6.3l56.4-44.1C258.2 868.9 377.8 932 512.2 932c229.2 0 415.5-183.7 419.8-411.8a8 8 0 0 0-8-8.2z"
     id="path2"
     style="fill:#ffffff" />
</svg>
